<?xml version="1.0" standalone="no"?>
<!DOCTYPE svg PUBLIC "-//W3C//DTD SVG 20010904//EN"
 "http://www.w3.org/TR/2001/REC-SVG-20010904/DTD/svg10.dtd">
<svg version="1.0" xmlns="http://www.w3.org/2000/svg"
 width="512.000000pt" height="512.000000pt" viewBox="0 0 512.000000 512.000000"
 preserveAspectRatio="xMidYMid meet">

<g transform="translate(0.000000,512.000000) scale(0.100000,-0.100000)"
fill="#000000" stroke="none">
<path d="M681 4784 c-169 -45 -301 -180 -346 -351 -12 -45 -15 -129 -15 -404
0 -190 5 -371 10 -400 34 -183 198 -344 384 -378 39 -7 269 -11 650 -11 645 0
678 3 778 57 116 63 207 178 240 302 24 92 26 745 3 834 -45 173 -178 307
-350 352 -85 22 -1271 21 -1354 -1z m1325 -330 c15 -11 37 -33 48 -48 20 -26
21 -42 24 -374 2 -344 2 -347 -21 -387 -14 -26 -37 -48 -67 -62 l-44 -23 -586
0 c-549 0 -588 2 -626 19 -23 10 -52 34 -65 52 l-24 34 -3 330 c-2 182 0 344
3 362 7 40 49 91 90 109 24 11 148 13 637 11 595 -2 607 -2 634 -23z"/>
<path d="M3081 4784 c-169 -45 -301 -180 -346 -351 -23 -87 -22 -1840 0 -1928
45 -172 179 -305 352 -350 85 -22 1261 -22 1346 0 173 45 307 178 352 350 22
88 23 1841 0 1928 -45 173 -178 307 -350 352 -85 22 -1271 21 -1354 -1z m1325
-330 c15 -11 37 -33 48 -48 21 -27 21 -34 21 -936 0 -902 0 -909 -21 -936 -11
-15 -33 -37 -48 -48 -27 -21 -37 -21 -646 -21 -609 0 -619 0 -646 21 -15 11
-37 33 -48 48 -21 27 -21 37 -24 909 -1 485 0 896 3 914 7 40 49 91 90 109 24
11 148 13 637 11 595 -2 607 -2 634 -23z"/>
<path d="M681 2964 c-169 -45 -301 -180 -346 -351 -23 -87 -22 -1840 0 -1928
45 -172 179 -305 352 -350 85 -22 1261 -22 1346 0 173 45 307 178 352 350 22
88 23 1841 0 1928 -45 173 -178 307 -350 352 -85 22 -1271 21 -1354 -1z m1325
-330 c15 -11 37 -33 48 -48 21 -27 21 -34 21 -935 l0 -908 -29 -37 c-52 -69
-29 -67 -700 -64 -593 3 -605 3 -632 24 -15 11 -37 33 -48 48 -21 27 -21 37
-24 909 -1 485 0 896 3 914 7 40 49 91 90 109 24 11 148 13 637 11 595 -2 607
-2 634 -23z"/>
<path d="M3105 1868 c-178 -34 -342 -198 -375 -377 -5 -29 -10 -210 -10 -400
0 -279 3 -358 15 -406 45 -172 179 -305 352 -350 86 -23 1261 -22 1348 0 172
45 305 179 350 352 23 89 21 742 -3 834 -46 175 -198 316 -376 348 -75 14
-1229 13 -1301 -1z m1285 -330 c30 -15 53 -37 67 -63 23 -40 23 -43 21 -386
l-3 -346 -29 -37 c-52 -69 -29 -67 -700 -64 -593 3 -605 3 -632 24 -15 11 -37
33 -48 48 -20 27 -21 39 -21 384 l0 357 24 34 c13 18 42 42 65 52 38 17 77 19
626 19 l586 0 44 -22z"/>
</g>
</svg>
