<svg xmlns="http://www.w3.org/2000/svg" version="1.1" viewBox="0 0 1440 482.79411764705884" style="max-height: 500px" id="wave" xmlns:xlink="http://www.w3.org/1999/xlink" width="1440" height="482.79411764705884"><defs><linearGradient y2="0" y1="1" x2="0" x1="0" id="sw-gradient-0"><stop offset="0%" stop-color="rgba(127.473, 72.389, 243.936, 1)"/><stop offset="100%" stop-color="rgba(64.155, 164.493, 255, 1)"/></linearGradient></defs><path d="M0,392L40,343C80,294,160,196,240,147C320,98,400,98,480,81.7C560,65,640,33,720,16.3C800,0,880,0,960,73.5C1040,147,1120,294,1200,367.5C1280,441,1360,441,1440,400.2C1520,359,1600,278,1680,269.5C1760,261,1840,327,1920,334.8C2000,343,2080,294,2160,285.8C2240,278,2320,310,2400,285.8C2480,261,2560,180,2640,155.2C2720,131,2800,163,2880,212.3C2960,261,3040,327,3120,359.3C3200,392,3280,392,3360,359.3C3440,327,3520,261,3600,269.5C3680,278,3760,359,3840,375.7C3920,392,4000,343,4080,302.2C4160,261,4240,229,4320,179.7C4400,131,4480,65,4560,81.7C4640,98,4720,196,4800,269.5C4880,343,4960,392,5040,367.5C5120,343,5200,245,5280,245C5360,245,5440,343,5520,343C5600,343,5680,245,5720,196L5760,147L5760,490L5720,490C5680,490,5600,490,5520,490C5440,490,5360,490,5280,490C5200,490,5120,490,5040,490C4960,490,4880,490,4800,490C4720,490,4640,490,4560,490C4480,490,4400,490,4320,490C4240,490,4160,490,4080,490C4000,490,3920,490,3840,490C3760,490,3680,490,3600,490C3520,490,3440,490,3360,490C3280,490,3200,490,3120,490C3040,490,2960,490,2880,490C2800,490,2720,490,2640,490C2560,490,2480,490,2400,490C2320,490,2240,490,2160,490C2080,490,2000,490,1920,490C1840,490,1760,490,1680,490C1600,490,1520,490,1440,490C1360,490,1280,490,1200,490C1120,490,1040,490,960,490C880,490,800,490,720,490C640,490,560,490,480,490C400,490,320,490,240,490C160,490,80,490,40,490L0,490Z" fill="url(#sw-gradient-0)" style="transform:translate(0, 0px); opacity:1"/><defs><linearGradient y2="0" y1="1" x2="0" x1="0" id="sw-gradient-1"><stop offset="0%" stop-color="rgba(127.5, 207.491, 255, 1)"/><stop offset="100%" stop-color="rgba(11, 221.939, 255, 1)"/></linearGradient></defs><path d="M0,147L40,187.8C80,229,160,310,240,334.8C320,359,400,327,480,326.7C560,327,640,359,720,375.7C800,392,880,392,960,383.8C1040,376,1120,359,1200,359.3C1280,359,1360,376,1440,334.8C1520,294,1600,196,1680,204.2C1760,212,1840,327,1920,351.2C2000,376,2080,310,2160,277.7C2240,245,2320,245,2400,277.7C2480,310,2560,376,2640,375.7C2720,376,2800,310,2880,302.2C2960,294,3040,343,3120,343C3200,343,3280,294,3360,294C3440,294,3520,343,3600,351.2C3680,359,3760,327,3840,277.7C3920,229,4000,163,4080,114.3C4160,65,4240,33,4320,24.5C4400,16,4480,33,4560,89.8C4640,147,4720,245,4800,236.8C4880,229,4960,114,5040,65.3C5120,16,5200,33,5280,73.5C5360,114,5440,180,5520,171.5C5600,163,5680,82,5720,40.8L5760,0L5760,490L5720,490C5680,490,5600,490,5520,490C5440,490,5360,490,5280,490C5200,490,5120,490,5040,490C4960,490,4880,490,4800,490C4720,490,4640,490,4560,490C4480,490,4400,490,4320,490C4240,490,4160,490,4080,490C4000,490,3920,490,3840,490C3760,490,3680,490,3600,490C3520,490,3440,490,3360,490C3280,490,3200,490,3120,490C3040,490,2960,490,2880,490C2800,490,2720,490,2640,490C2560,490,2480,490,2400,490C2320,490,2240,490,2160,490C2080,490,2000,490,1920,490C1840,490,1760,490,1680,490C1600,490,1520,490,1440,490C1360,490,1280,490,1200,490C1120,490,1040,490,960,490C880,490,800,490,720,490C640,490,560,490,480,490C400,490,320,490,240,490C160,490,80,490,40,490L0,490Z" fill="url(#sw-gradient-1)" style="transform:translate(0, 50px); opacity:0.9"/><defs><linearGradient y2="0" y1="1" x2="0" x1="0" id="sw-gradient-2"><stop offset="0%" stop-color="rgba(115.983, 123.145, 255, 1)"/><stop offset="100%" stop-color="rgba(11, 139.285, 255, 1)"/></linearGradient></defs><path d="M0,294L40,285.8C80,278,160,261,240,228.7C320,196,400,147,480,106.2C560,65,640,33,720,65.3C800,98,880,196,960,236.8C1040,278,1120,261,1200,261.3C1280,261,1360,278,1440,310.3C1520,343,1600,392,1680,367.5C1760,343,1840,245,1920,196C2000,147,2080,147,2160,179.7C2240,212,2320,278,2400,318.5C2480,359,2560,376,2640,318.5C2720,261,2800,131,2880,106.2C2960,82,3040,163,3120,196C3200,229,3280,212,3360,204.2C3440,196,3520,196,3600,187.8C3680,180,3760,163,3840,163.3C3920,163,4000,180,4080,196C4160,212,4240,229,4320,204.2C4400,180,4480,114,4560,73.5C4640,33,4720,16,4800,8.2C4880,0,4960,0,5040,0C5120,0,5200,0,5280,49C5360,98,5440,196,5520,212.3C5600,229,5680,163,5720,130.7L5760,98L5760,490L5720,490C5680,490,5600,490,5520,490C5440,490,5360,490,5280,490C5200,490,5120,490,5040,490C4960,490,4880,490,4800,490C4720,490,4640,490,4560,490C4480,490,4400,490,4320,490C4240,490,4160,490,4080,490C4000,490,3920,490,3840,490C3760,490,3680,490,3600,490C3520,490,3440,490,3360,490C3280,490,3200,490,3120,490C3040,490,2960,490,2880,490C2800,490,2720,490,2640,490C2560,490,2480,490,2400,490C2320,490,2240,490,2160,490C2080,490,2000,490,1920,490C1840,490,1760,490,1680,490C1600,490,1520,490,1440,490C1360,490,1280,490,1200,490C1120,490,1040,490,960,490C880,490,800,490,720,490C640,490,560,490,480,490C400,490,320,490,240,490C160,490,80,490,40,490L0,490Z" fill="url(#sw-gradient-2)" style="transform:translate(0, 100px); opacity:0.8"/><defs><linearGradient y2="0" y1="1" x2="0" x1="0" id="sw-gradient-3"><stop offset="0%" stop-color="rgba(99.9, 168.998, 250.767, 1)"/><stop offset="100%" stop-color="rgba(78.583, 75.672, 255, 1)"/></linearGradient></defs><path d="M0,0L40,0C80,0,160,0,240,32.7C320,65,400,131,480,196C560,261,640,327,720,302.2C800,278,880,163,960,130.7C1040,98,1120,147,1200,147C1280,147,1360,98,1440,98C1520,98,1600,147,1680,212.3C1760,278,1840,359,1920,359.3C2000,359,2080,278,2160,261.3C2240,245,2320,294,2400,277.7C2480,261,2560,180,2640,171.5C2720,163,2800,229,2880,269.5C2960,310,3040,327,3120,351.2C3200,376,3280,408,3360,392C3440,376,3520,310,3600,277.7C3680,245,3760,245,3840,261.3C3920,278,4000,310,4080,334.8C4160,359,4240,376,4320,392C4400,408,4480,425,4560,375.7C4640,327,4720,212,4800,187.8C4880,163,4960,229,5040,261.3C5120,294,5200,294,5280,310.3C5360,327,5440,359,5520,334.8C5600,310,5680,229,5720,187.8L5760,147L5760,490L5720,490C5680,490,5600,490,5520,490C5440,490,5360,490,5280,490C5200,490,5120,490,5040,490C4960,490,4880,490,4800,490C4720,490,4640,490,4560,490C4480,490,4400,490,4320,490C4240,490,4160,490,4080,490C4000,490,3920,490,3840,490C3760,490,3680,490,3600,490C3520,490,3440,490,3360,490C3280,490,3200,490,3120,490C3040,490,2960,490,2880,490C2800,490,2720,490,2640,490C2560,490,2480,490,2400,490C2320,490,2240,490,2160,490C2080,490,2000,490,1920,490C1840,490,1760,490,1680,490C1600,490,1520,490,1440,490C1360,490,1280,490,1200,490C1120,490,1040,490,960,490C880,490,800,490,720,490C640,490,560,490,480,490C400,490,320,490,240,490C160,490,80,490,40,490L0,490Z" fill="url(#sw-gradient-3)" style="transform:translate(0, 150px); opacity:0.7"/></svg>