<?xml version="1.0" standalone="no"?>
<svg xmlns:xlink="http://www.w3.org/1999/xlink" id="wave" style="transform:rotate(0deg); transition: 0.3s" viewBox="0 0 1440 490" version="1.1" xmlns="http://www.w3.org/2000/svg"><defs><linearGradient id="sw-gradient-0" x1="0" x2="0" y1="1" y2="0"><stop stop-color="rgba(127.473, 72.389, 243.936, 1)" offset="0%"/><stop stop-color="rgba(64.155, 164.493, 255, 1)" offset="100%"/></linearGradient></defs><path style="transform:translate(0, 0px); opacity:1" fill="url(#sw-gradient-0)" d="M0,294L40,261.3C80,229,160,163,240,187.8C320,212,400,327,480,375.7C560,425,640,408,720,400.2C800,392,880,392,960,343C1040,294,1120,196,1200,130.7C1280,65,1360,33,1440,89.8C1520,147,1600,294,1680,367.5C1760,441,1840,441,1920,416.5C2000,392,2080,343,2160,285.8C2240,229,2320,163,2400,138.8C2480,114,2560,131,2640,138.8C2720,147,2800,147,2880,179.7C2960,212,3040,278,3120,269.5C3200,261,3280,180,3360,196C3440,212,3520,327,3600,367.5C3680,408,3760,376,3840,343C3920,310,4000,278,4080,236.8C4160,196,4240,147,4320,171.5C4400,196,4480,294,4560,277.7C4640,261,4720,131,4800,81.7C4880,33,4960,65,5040,130.7C5120,196,5200,294,5280,285.8C5360,278,5440,163,5520,130.7C5600,98,5680,147,5720,171.5L5760,196L5760,490L5720,490C5680,490,5600,490,5520,490C5440,490,5360,490,5280,490C5200,490,5120,490,5040,490C4960,490,4880,490,4800,490C4720,490,4640,490,4560,490C4480,490,4400,490,4320,490C4240,490,4160,490,4080,490C4000,490,3920,490,3840,490C3760,490,3680,490,3600,490C3520,490,3440,490,3360,490C3280,490,3200,490,3120,490C3040,490,2960,490,2880,490C2800,490,2720,490,2640,490C2560,490,2480,490,2400,490C2320,490,2240,490,2160,490C2080,490,2000,490,1920,490C1840,490,1760,490,1680,490C1600,490,1520,490,1440,490C1360,490,1280,490,1200,490C1120,490,1040,490,960,490C880,490,800,490,720,490C640,490,560,490,480,490C400,490,320,490,240,490C160,490,80,490,40,490L0,490Z"/><defs><linearGradient id="sw-gradient-1" x1="0" x2="0" y1="1" y2="0"><stop stop-color="rgba(127.5, 207.491, 255, 1)" offset="0%"/><stop stop-color="rgba(11, 221.939, 255, 1)" offset="100%"/></linearGradient></defs><path style="transform:translate(0, 50px); opacity:0.9" fill="url(#sw-gradient-1)" d="M0,343L40,302.2C80,261,160,180,240,196C320,212,400,327,480,359.3C560,392,640,343,720,285.8C800,229,880,163,960,163.3C1040,163,1120,229,1200,212.3C1280,196,1360,98,1440,122.5C1520,147,1600,294,1680,326.7C1760,359,1840,278,1920,253.2C2000,229,2080,261,2160,245C2240,229,2320,163,2400,155.2C2480,147,2560,196,2640,187.8C2720,180,2800,114,2880,73.5C2960,33,3040,16,3120,8.2C3200,0,3280,0,3360,0C3440,0,3520,0,3600,24.5C3680,49,3760,98,3840,138.8C3920,180,4000,212,4080,228.7C4160,245,4240,245,4320,245C4400,245,4480,245,4560,236.8C4640,229,4720,212,4800,212.3C4880,212,4960,229,5040,269.5C5120,310,5200,376,5280,351.2C5360,327,5440,212,5520,187.8C5600,163,5680,229,5720,261.3L5760,294L5760,490L5720,490C5680,490,5600,490,5520,490C5440,490,5360,490,5280,490C5200,490,5120,490,5040,490C4960,490,4880,490,4800,490C4720,490,4640,490,4560,490C4480,490,4400,490,4320,490C4240,490,4160,490,4080,490C4000,490,3920,490,3840,490C3760,490,3680,490,3600,490C3520,490,3440,490,3360,490C3280,490,3200,490,3120,490C3040,490,2960,490,2880,490C2800,490,2720,490,2640,490C2560,490,2480,490,2400,490C2320,490,2240,490,2160,490C2080,490,2000,490,1920,490C1840,490,1760,490,1680,490C1600,490,1520,490,1440,490C1360,490,1280,490,1200,490C1120,490,1040,490,960,490C880,490,800,490,720,490C640,490,560,490,480,490C400,490,320,490,240,490C160,490,80,490,40,490L0,490Z"/><defs><linearGradient id="sw-gradient-2" x1="0" x2="0" y1="1" y2="0"><stop stop-color="rgba(115.983, 123.145, 255, 1)" offset="0%"/><stop stop-color="rgba(11, 139.285, 255, 1)" offset="100%"/></linearGradient></defs><path style="transform:translate(0, 100px); opacity:0.8" fill="url(#sw-gradient-2)" d="M0,0L40,8.2C80,16,160,33,240,57.2C320,82,400,114,480,147C560,180,640,212,720,187.8C800,163,880,82,960,65.3C1040,49,1120,98,1200,138.8C1280,180,1360,212,1440,204.2C1520,196,1600,147,1680,122.5C1760,98,1840,98,1920,114.3C2000,131,2080,163,2160,204.2C2240,245,2320,294,2400,326.7C2480,359,2560,376,2640,351.2C2720,327,2800,261,2880,220.5C2960,180,3040,163,3120,163.3C3200,163,3280,180,3360,163.3C3440,147,3520,98,3600,106.2C3680,114,3760,180,3840,236.8C3920,294,4000,343,4080,351.2C4160,359,4240,327,4320,277.7C4400,229,4480,163,4560,187.8C4640,212,4720,327,4800,383.8C4880,441,4960,441,5040,375.7C5120,310,5200,180,5280,138.8C5360,98,5440,147,5520,138.8C5600,131,5680,65,5720,32.7L5760,0L5760,490L5720,490C5680,490,5600,490,5520,490C5440,490,5360,490,5280,490C5200,490,5120,490,5040,490C4960,490,4880,490,4800,490C4720,490,4640,490,4560,490C4480,490,4400,490,4320,490C4240,490,4160,490,4080,490C4000,490,3920,490,3840,490C3760,490,3680,490,3600,490C3520,490,3440,490,3360,490C3280,490,3200,490,3120,490C3040,490,2960,490,2880,490C2800,490,2720,490,2640,490C2560,490,2480,490,2400,490C2320,490,2240,490,2160,490C2080,490,2000,490,1920,490C1840,490,1760,490,1680,490C1600,490,1520,490,1440,490C1360,490,1280,490,1200,490C1120,490,1040,490,960,490C880,490,800,490,720,490C640,490,560,490,480,490C400,490,320,490,240,490C160,490,80,490,40,490L0,490Z"/><defs><linearGradient id="sw-gradient-3" x1="0" x2="0" y1="1" y2="0"><stop stop-color="rgba(99.9, 168.998, 250.767, 1)" offset="0%"/><stop stop-color="rgba(78.583, 75.672, 255, 1)" offset="100%"/></linearGradient></defs><path style="transform:translate(0, 150px); opacity:0.7" fill="url(#sw-gradient-3)" d="M0,49L40,114.3C80,180,160,310,240,318.5C320,327,400,212,480,204.2C560,196,640,294,720,326.7C800,359,880,327,960,318.5C1040,310,1120,327,1200,318.5C1280,310,1360,278,1440,245C1520,212,1600,180,1680,147C1760,114,1840,82,1920,130.7C2000,180,2080,310,2160,310.3C2240,310,2320,180,2400,122.5C2480,65,2560,82,2640,147C2720,212,2800,327,2880,351.2C2960,376,3040,310,3120,302.2C3200,294,3280,343,3360,351.2C3440,359,3520,327,3600,318.5C3680,310,3760,327,3840,326.7C3920,327,4000,310,4080,277.7C4160,245,4240,196,4320,155.2C4400,114,4480,82,4560,73.5C4640,65,4720,82,4800,138.8C4880,196,4960,294,5040,326.7C5120,359,5200,327,5280,269.5C5360,212,5440,131,5520,98C5600,65,5680,82,5720,89.8L5760,98L5760,490L5720,490C5680,490,5600,490,5520,490C5440,490,5360,490,5280,490C5200,490,5120,490,5040,490C4960,490,4880,490,4800,490C4720,490,4640,490,4560,490C4480,490,4400,490,4320,490C4240,490,4160,490,4080,490C4000,490,3920,490,3840,490C3760,490,3680,490,3600,490C3520,490,3440,490,3360,490C3280,490,3200,490,3120,490C3040,490,2960,490,2880,490C2800,490,2720,490,2640,490C2560,490,2480,490,2400,490C2320,490,2240,490,2160,490C2080,490,2000,490,1920,490C1840,490,1760,490,1680,490C1600,490,1520,490,1440,490C1360,490,1280,490,1200,490C1120,490,1040,490,960,490C880,490,800,490,720,490C640,490,560,490,480,490C400,490,320,490,240,490C160,490,80,490,40,490L0,490Z"/></svg>