<svg xmlns="http://www.w3.org/2000/svg" version="1.1" viewBox="0 92.23529411764706 1440 397.7647058823529" style="max-height: 500px" id="wave" xmlns:xlink="http://www.w3.org/1999/xlink" width="1440" height="397.7647058823529"><defs><linearGradient y2="0" y1="1" x2="0" x1="0" id="sw-gradient-0"><stop offset="0%" stop-color="rgba(62, 163.294, 243, 1)"/><stop offset="100%" stop-color="rgba(97.267, 121.422, 255, 1)"/></linearGradient></defs><path d="M0,245L80,277.7C160,310,320,376,480,367.5C640,359,800,278,960,220.5C1120,163,1280,131,1440,98C1600,65,1760,33,1920,57.2C2080,82,2240,163,2400,204.2C2560,245,2720,245,2880,269.5C3040,294,3200,343,3360,302.2C3520,261,3680,131,3840,65.3C4000,0,4160,0,4320,0C4480,0,4640,0,4800,32.7C4960,65,5120,131,5280,163.3C5440,196,5600,196,5760,212.3C5920,229,6080,261,6240,261.3C6400,261,6560,229,6720,220.5C6880,212,7040,229,7200,261.3C7360,294,7520,343,7680,326.7C7840,310,8000,229,8160,236.8C8320,245,8480,343,8640,375.7C8800,408,8960,376,9120,351.2C9280,327,9440,310,9600,285.8C9760,261,9920,229,10080,212.3C10240,196,10400,196,10560,212.3C10720,229,10880,261,11040,294C11200,327,11360,359,11440,375.7L11520,392L11520,490L11440,490C11360,490,11200,490,11040,490C10880,490,10720,490,10560,490C10400,490,10240,490,10080,490C9920,490,9760,490,9600,490C9440,490,9280,490,9120,490C8960,490,8800,490,8640,490C8480,490,8320,490,8160,490C8000,490,7840,490,7680,490C7520,490,7360,490,7200,490C7040,490,6880,490,6720,490C6560,490,6400,490,6240,490C6080,490,5920,490,5760,490C5600,490,5440,490,5280,490C5120,490,4960,490,4800,490C4640,490,4480,490,4320,490C4160,490,4000,490,3840,490C3680,490,3520,490,3360,490C3200,490,3040,490,2880,490C2720,490,2560,490,2400,490C2240,490,2080,490,1920,490C1760,490,1600,490,1440,490C1280,490,1120,490,960,490C800,490,640,490,480,490C320,490,160,490,80,490L0,490Z" fill="url(#sw-gradient-0)" style="transform:translate(0, 0px); opacity:1"/><defs><linearGradient y2="0" y1="1" x2="0" x1="0" id="sw-gradient-1"><stop offset="0%" stop-color="rgba(62, 120.375, 243, 1)"/><stop offset="100%" stop-color="rgba(121.741, 133.121, 255, 1)"/></linearGradient></defs><path d="M0,343L80,326.7C160,310,320,278,480,277.7C640,278,800,310,960,334.8C1120,359,1280,376,1440,326.7C1600,278,1760,163,1920,155.2C2080,147,2240,245,2400,261.3C2560,278,2720,212,2880,171.5C3040,131,3200,114,3360,163.3C3520,212,3680,327,3840,326.7C4000,327,4160,212,4320,179.7C4480,147,4640,196,4800,187.8C4960,180,5120,114,5280,147C5440,180,5600,310,5760,310.3C5920,310,6080,180,6240,147C6400,114,6560,180,6720,236.8C6880,294,7040,343,7200,343C7360,343,7520,294,7680,253.2C7840,212,8000,180,8160,171.5C8320,163,8480,180,8640,220.5C8800,261,8960,327,9120,326.7C9280,327,9440,261,9600,245C9760,229,9920,261,10080,261.3C10240,261,10400,229,10560,204.2C10720,180,10880,163,11040,147C11200,131,11360,114,11440,106.2L11520,98L11520,490L11440,490C11360,490,11200,490,11040,490C10880,490,10720,490,10560,490C10400,490,10240,490,10080,490C9920,490,9760,490,9600,490C9440,490,9280,490,9120,490C8960,490,8800,490,8640,490C8480,490,8320,490,8160,490C8000,490,7840,490,7680,490C7520,490,7360,490,7200,490C7040,490,6880,490,6720,490C6560,490,6400,490,6240,490C6080,490,5920,490,5760,490C5600,490,5440,490,5280,490C5120,490,4960,490,4800,490C4640,490,4480,490,4320,490C4160,490,4000,490,3840,490C3680,490,3520,490,3360,490C3200,490,3040,490,2880,490C2720,490,2560,490,2400,490C2240,490,2080,490,1920,490C1760,490,1600,490,1440,490C1280,490,1120,490,960,490C800,490,640,490,480,490C320,490,160,490,80,490L0,490Z" fill="url(#sw-gradient-1)" style="transform:translate(0, 50px); opacity:0.9"/><defs><linearGradient y2="0" y1="1" x2="0" x1="0" id="sw-gradient-2"><stop offset="0%" stop-color="rgba(64.084, 98.883, 200.677, 1)"/><stop offset="100%" stop-color="rgba(101.586, 171.851, 255, 1)"/></linearGradient></defs><path d="M0,294L80,285.8C160,278,320,261,480,228.7C640,196,800,147,960,106.2C1120,65,1280,33,1440,40.8C1600,49,1760,98,1920,122.5C2080,147,2240,147,2400,196C2560,245,2720,343,2880,375.7C3040,408,3200,376,3360,367.5C3520,359,3680,376,3840,343C4000,310,4160,229,4320,163.3C4480,98,4640,49,4800,32.7C4960,16,5120,33,5280,49C5440,65,5600,82,5760,114.3C5920,147,6080,196,6240,196C6400,196,6560,147,6720,106.2C6880,65,7040,33,7200,32.7C7360,33,7520,65,7680,138.8C7840,212,8000,327,8160,326.7C8320,327,8480,212,8640,171.5C8800,131,8960,163,9120,147C9280,131,9440,65,9600,106.2C9760,147,9920,294,10080,359.3C10240,425,10400,408,10560,351.2C10720,294,10880,196,11040,130.7C11200,65,11360,33,11440,16.3L11520,0L11520,490L11440,490C11360,490,11200,490,11040,490C10880,490,10720,490,10560,490C10400,490,10240,490,10080,490C9920,490,9760,490,9600,490C9440,490,9280,490,9120,490C8960,490,8800,490,8640,490C8480,490,8320,490,8160,490C8000,490,7840,490,7680,490C7520,490,7360,490,7200,490C7040,490,6880,490,6720,490C6560,490,6400,490,6240,490C6080,490,5920,490,5760,490C5600,490,5440,490,5280,490C5120,490,4960,490,4800,490C4640,490,4480,490,4320,490C4160,490,4000,490,3840,490C3680,490,3520,490,3360,490C3200,490,3040,490,2880,490C2720,490,2560,490,2400,490C2240,490,2080,490,1920,490C1760,490,1600,490,1440,490C1280,490,1120,490,960,490C800,490,640,490,480,490C320,490,160,490,80,490L0,490Z" fill="url(#sw-gradient-2)" style="transform:translate(0, 100px); opacity:0.8"/><defs><linearGradient y2="0" y1="1" x2="0" x1="0" id="sw-gradient-3"><stop offset="0%" stop-color="rgba(25.284, 68.244, 255, 1)"/><stop offset="100%" stop-color="rgba(91.508, 149.775, 255, 1)"/></linearGradient></defs><path d="M0,294L80,245C160,196,320,98,480,73.5C640,49,800,98,960,138.8C1120,180,1280,212,1440,236.8C1600,261,1760,278,1920,294C2080,310,2240,327,2400,310.3C2560,294,2720,245,2880,220.5C3040,196,3200,196,3360,163.3C3520,131,3680,65,3840,89.8C4000,114,4160,229,4320,269.5C4480,310,4640,278,4800,277.7C4960,278,5120,310,5280,310.3C5440,310,5600,278,5760,245C5920,212,6080,180,6240,212.3C6400,245,6560,343,6720,392C6880,441,7040,441,7200,392C7360,343,7520,245,7680,228.7C7840,212,8000,278,8160,294C8320,310,8480,278,8640,261.3C8800,245,8960,245,9120,269.5C9280,294,9440,343,9600,318.5C9760,294,9920,196,10080,187.8C10240,180,10400,261,10560,245C10720,229,10880,114,11040,81.7C11200,49,11360,98,11440,122.5L11520,147L11520,490L11440,490C11360,490,11200,490,11040,490C10880,490,10720,490,10560,490C10400,490,10240,490,10080,490C9920,490,9760,490,9600,490C9440,490,9280,490,9120,490C8960,490,8800,490,8640,490C8480,490,8320,490,8160,490C8000,490,7840,490,7680,490C7520,490,7360,490,7200,490C7040,490,6880,490,6720,490C6560,490,6400,490,6240,490C6080,490,5920,490,5760,490C5600,490,5440,490,5280,490C5120,490,4960,490,4800,490C4640,490,4480,490,4320,490C4160,490,4000,490,3840,490C3680,490,3520,490,3360,490C3200,490,3040,490,2880,490C2720,490,2560,490,2400,490C2240,490,2080,490,1920,490C1760,490,1600,490,1440,490C1280,490,1120,490,960,490C800,490,640,490,480,490C320,490,160,490,80,490L0,490Z" fill="url(#sw-gradient-3)" style="transform:translate(0, 150px); opacity:0.7"/></svg>